# xmcd
#
# Track frame offsets:
#	150
#	13936
#	27419
#	42428
#	61948
#	78393
#	93626
#	109606
#	126300
#	145941
#	163314
#	184841
#	202837
#	220655
#	236740
#
# Disc length: 3354 seconds
#
# Revision: 11
# Processed by: cddbd v1.5.2PL0 Copyright (c) Steve Scherf et al.
# Submitted via: audiograbber 1.83.01
#
DISCID=d60d180f
DTITLE=Brooks and Dunn - #1s...And Then Some
DYEAR=2009
DGENRE=Country
TTITLE0=Honky Tonk Stomp (featuring Billy Gibbons)
TTITLE1=Brand New Man
TTITLE2=Ain't Nothing 'Bout You
TTITLE3=Hillbilly Deluxe
TTITLE4=How Long Gone
TTITLE5=She's Not the Cheatin' Kind
TTITLE6=A Man This Lonely
TTITLE7=Rock My World (Little Country Girl )
TTITLE8=Red Dirt Road
TTITLE9=The Long Goodbye
TTITLE10=You're Gonna Miss Me When I'm Gone
TTITLE11=If You See Him/If You See Her (with Reba Mcentire)
TTITLE12=She Used to Be Mine
TTITLE13=That Ain't No Way to Go
TTITLE14=Boot Scootin' Boogie
EXTD=
EXTT0=
EXTT1=
EXTT2=
EXTT3=
EXTT4=
EXTT5=
EXTT6=
EXTT7=
EXTT8=
EXTT9=
EXTT10=
EXTT11=
EXTT12=
EXTT13=
EXTT14=
PLAYORDER=
